<svg width="17" height="17" viewBox="0 0 17 17" fill="none" xmlns="http://www.w3.org/2000/svg">
    <path
        d="M9.79541 2.08281L11.1154 4.74456C11.2954 5.11506 11.7754 5.47056 12.1804 5.53806L14.5722 5.93931C16.1022 6.19656 16.4622 7.31556 15.3597 8.41956L13.4997 10.2946C13.1847 10.6118 13.0122 11.2246 13.1097 11.6633L13.6422 13.9846C14.0622 15.8221 13.0947 16.5323 11.4822 15.5723L9.23966 14.2336C8.83466 13.9921 8.16716 13.9921 7.75466 14.2336L5.51366 15.5723C3.90866 16.5323 2.93366 15.8138 3.35366 13.9846L3.88616 11.6633C3.98366 11.2246 3.81116 10.6118 3.49616 10.2946L1.63616 8.41956C0.541913 7.31481 0.894413 6.19656 2.42366 5.93931L4.81616 5.53806C5.21366 5.47056 5.69366 5.11506 5.87366 4.74456L7.19366 2.08281C7.91366 0.639063 9.08291 0.639063 9.79541 2.08281Z"
        fill="#AEADC3" stroke="#AEADC3" stroke-width="1.5" stroke-linecap="round" stroke-linejoin="round" />
</svg>